<svg xmlns="http://www.w3.org/2000/svg" xmlns:xlink="http://www.w3.org/1999/xlink" width="1024" zoomAndPan="magnify" viewBox="0 0 768 767.999994" height="1024" preserveAspectRatio="xMidYMid meet" version="1.0"><defs><clipPath id="161415b953"><path d="M 170.625 48.261719 L 277 48.261719 L 277 583 L 170.625 583 Z M 170.625 48.261719 " clip-rule="nonzero"/></clipPath><clipPath id="94a77f9038"><path d="M 278 264.0625 L 597.300781 264.0625 L 597.300781 691.011719 L 278 691.011719 Z M 278 264.0625 " clip-rule="nonzero"/></clipPath><clipPath id="71a34a682f"><path d="M 301 395.429688 L 466.75 395.429688 L 466.75 561.179688 L 301 561.179688 Z M 301 395.429688 " clip-rule="nonzero"/></clipPath></defs><rect x="-76.8" width="921.6" fill="#ffffff" y="-76.799999" height="921.599993" fill-opacity="1"/><rect x="-76.8" width="921.6" fill="#609926" y="-76.799999" height="921.599993" fill-opacity="1"/><g clip-path="url(#161415b953)"><path fill="#ffffff" d="M 170.722656 477.875 C 170.722656 477.875 170.722656 477.878906 170.722656 477.878906 C 170.722656 515.761719 180.613281 551.332031 197.929688 582.167969 C 236.675781 572.617188 267.203125 541.988281 276.613281 503.191406 L 276.613281 477.882812 C 276.613281 477.882812 276.613281 477.878906 276.613281 477.878906 L 276.613281 154.152344 C 276.613281 95.671875 229.203125 48.265625 170.722656 48.265625 L 170.722656 477.875 " fill-opacity="1" fill-rule="nonzero"/></g><g clip-path="url(#94a77f9038)"><path fill="#ffffff" d="M 384.015625 264.585938 C 383.507812 264.585938 383.007812 264.59375 382.503906 264.597656 L 382.503906 370.496094 C 383.007812 370.492188 383.507812 370.472656 384.015625 370.472656 C 443.238281 370.472656 491.417969 418.65625 491.417969 477.878906 C 491.417969 537.101562 443.238281 585.28125 384.015625 585.28125 C 375.160156 585.28125 366.558594 584.195312 358.320312 582.167969 C 339.40625 615.84375 311.625 643.871094 278.128906 663.066406 C 309.328125 680.945312 345.476562 691.171875 384.015625 691.171875 C 501.8125 691.171875 597.304688 595.675781 597.304688 477.878906 C 597.304688 360.082031 501.8125 264.585938 384.015625 264.585938 " fill-opacity="1" fill-rule="nonzero"/></g><g clip-path="url(#71a34a682f)"><path fill="#ffffff" d="M 466.996094 478.429688 C 466.996094 524.167969 429.738281 561.425781 383.996094 561.425781 C 338.253906 561.425781 301 524.167969 301 478.429688 C 301 457.957031 308.558594 438.40625 322.207031 423.097656 L 310.21875 423.097656 C 307.085938 423.097656 304.6875 420.699219 304.6875 417.5625 C 304.6875 414.425781 307.085938 412.03125 310.21875 412.03125 L 336.042969 412.03125 C 339.175781 412.03125 341.574219 414.425781 341.574219 417.5625 L 341.574219 443.386719 C 341.574219 446.519531 339.175781 448.917969 336.042969 448.917969 C 332.90625 448.917969 330.507812 446.519531 330.507812 443.386719 L 330.507812 430.289062 C 318.703125 443.570312 312.066406 460.539062 312.066406 478.429688 C 312.066406 518.082031 344.339844 550.359375 383.996094 550.359375 C 423.652344 550.359375 455.929688 518.082031 455.929688 478.429688 C 455.929688 438.773438 423.652344 406.496094 383.996094 406.496094 C 380.859375 406.496094 378.464844 404.097656 378.464844 400.964844 C 378.464844 397.828125 380.859375 395.429688 383.996094 395.429688 C 429.738281 395.429688 466.996094 432.6875 466.996094 478.429688 Z M 383.996094 432.320312 C 386.023438 432.320312 387.683594 430.660156 387.683594 428.628906 L 387.683594 417.5625 C 387.683594 415.535156 386.023438 413.875 383.996094 413.875 C 381.96875 413.875 380.308594 415.535156 380.308594 417.5625 L 380.308594 428.628906 C 380.308594 430.660156 381.96875 432.320312 383.996094 432.320312 Z M 380.308594 539.292969 C 380.308594 541.324219 381.96875 542.984375 383.996094 542.984375 C 386.023438 542.984375 387.683594 541.324219 387.683594 539.292969 L 387.683594 528.226562 C 387.683594 526.199219 386.023438 524.539062 383.996094 524.539062 C 381.96875 524.539062 380.308594 526.199219 380.308594 528.226562 Z M 444.863281 482.117188 C 446.890625 482.117188 448.550781 480.457031 448.550781 478.429688 C 448.550781 476.398438 446.890625 474.738281 444.863281 474.738281 L 433.796875 474.738281 C 431.765625 474.738281 430.105469 476.398438 430.105469 478.429688 C 430.105469 480.457031 431.765625 482.117188 433.796875 482.117188 Z M 323.132812 474.738281 C 321.101562 474.738281 319.441406 476.398438 319.441406 478.429688 C 319.441406 480.457031 321.101562 482.117188 323.132812 482.117188 L 334.199219 482.117188 C 336.226562 482.117188 337.886719 480.457031 337.886719 478.429688 C 337.886719 476.398438 336.226562 474.738281 334.199219 474.738281 Z M 380.308594 478.429688 C 380.308594 479.351562 380.675781 480.273438 381.414062 481.011719 L 397.089844 496.6875 C 397.828125 497.425781 398.75 497.792969 399.671875 497.792969 C 400.597656 497.792969 401.519531 497.425781 402.253906 496.6875 C 403.730469 495.210938 403.730469 493 402.253906 491.523438 L 387.683594 476.953125 L 387.683594 445.230469 C 387.683594 443.199219 386.023438 441.539062 383.996094 441.539062 C 381.96875 441.539062 380.308594 443.199219 380.308594 445.230469 Z M 380.308594 478.429688 " fill-opacity="1" fill-rule="nonzero"/></g></svg>